<svg width="161" height="57" viewBox="0 0 161 57" fill="none" xmlns="http://www.w3.org/2000/svg">
<path d="M36.4637 53.8234C36.4066 53.8234 36.2355 53.8234 35.8931 53.8234L35.4652 53.8519V53.7379C35.722 53.7379 35.8931 53.6809 35.9787 53.5383C36.0643 53.4243 36.0928 53.2247 36.0928 52.9681V50.6874C36.0928 50.4024 36.0072 50.1743 35.8361 50.0032C35.6649 49.8322 35.4367 49.7466 35.1514 49.7466C34.6665 49.7466 34.2386 49.9462 33.8392 50.3453V52.9681C33.8392 53.1677 33.8677 53.3673 33.9248 53.4813C34.0104 53.6524 34.153 53.7664 34.3527 53.7664H34.4953V53.8804L33.4684 53.8519C33.4113 53.8519 33.2401 53.8519 32.8978 53.8519L32.4699 53.8804V53.7664C32.6981 53.7664 32.8693 53.7094 32.9549 53.6238C33.0404 53.5383 33.0975 53.3673 33.0975 53.1392V52.9966V50.6589C33.0975 50.2883 32.9834 50.0888 32.7837 50.0888C32.6981 50.0888 32.584 50.1173 32.4129 50.1458V50.0317C32.9834 49.8037 33.4684 49.5756 33.8392 49.4045V50.2883C34.2956 49.7181 34.8662 49.4616 35.4938 49.4616C35.8931 49.4616 36.2355 49.5756 36.4637 49.8037C36.7204 50.0317 36.8345 50.3453 36.8345 50.7445V53.0252C36.8345 53.2817 36.863 53.4528 36.8916 53.5383C36.9772 53.6809 37.1198 53.7664 37.3195 53.7949H37.4621V53.9089C37.3765 53.9089 37.1768 53.9089 36.8916 53.8804H36.4637V53.8234Z" fill="black"/>
<path d="M42.8537 51.3718C42.654 51.4289 42.4258 51.4859 42.2261 51.5714C41.7982 51.7424 41.5129 51.885 41.3703 51.999C41.085 52.1986 40.9424 52.4837 40.9424 52.8258C40.9424 53.4245 41.1991 53.7095 41.7126 53.7095C42.055 53.7095 42.4258 53.51 42.8252 53.1109V51.3718H42.8537ZM43.0534 53.9946C42.9678 53.8806 42.9108 53.7095 42.8537 53.4815C42.8537 53.4245 42.8252 53.3389 42.7967 53.2249C42.3117 53.7095 41.7982 53.9376 41.2847 53.9376C40.7712 53.9376 40.4289 53.7096 40.2578 53.2819C40.2007 53.1394 40.1722 52.9683 40.1722 52.8258C40.1722 52.5122 40.3433 52.2556 40.7142 52.0275C40.9139 51.9135 41.2562 51.771 41.7126 51.6284L42.8537 51.2578V50.5166C42.8537 50.2315 42.7967 50.0034 42.6825 49.8039C42.5399 49.6043 42.3402 49.4903 42.055 49.4903C41.8553 49.4903 41.6556 49.5473 41.4844 49.6613C41.2847 49.7753 41.1706 49.9464 41.1706 50.146C41.1706 50.26 41.1991 50.431 41.2562 50.6021L40.5716 50.8302C40.543 50.7731 40.543 50.6876 40.5145 50.6021C40.5145 50.26 40.7427 49.9464 41.2277 49.7183C41.6556 49.4903 42.055 49.3762 42.4543 49.3762C42.7681 49.3762 43.0534 49.4617 43.2531 49.6613C43.4528 49.8609 43.5383 50.1175 43.5383 50.431V52.8828C43.5383 53.2249 43.681 53.396 43.9377 53.396C44.0233 53.396 44.1089 53.3674 44.2515 53.3104L44.28 53.396L43.0534 53.9946Z" fill="black"/>
<path d="M49.1296 53.7949L49.0155 53.966H48.8444C48.6732 53.966 48.4735 53.9374 48.2738 53.8519C47.6748 53.5953 47.3895 53.1677 47.3895 52.5405V49.6896H46.5052V49.5471H46.9331C47.1613 49.5471 47.3895 49.4046 47.6177 49.1195C47.8174 48.8629 47.96 48.6063 47.9886 48.3497L48.0456 48.0361H48.1597V49.5471H49.6146L49.5575 49.6896H48.1597V52.5975C48.1597 52.7401 48.1597 52.8256 48.1882 52.8826C48.2168 53.0822 48.3024 53.2532 48.4735 53.3958C48.6161 53.5383 48.8158 53.5953 49.0155 53.5953C49.1582 53.5953 49.2723 53.5668 49.3864 53.5098C49.4434 53.4813 49.529 53.3958 49.7287 53.2817C49.4149 53.4528 49.2437 53.6239 49.1296 53.7949Z" fill="black"/>
<path d="M55.8334 53.9943C55.6908 53.8518 55.6052 53.5952 55.6052 53.2531L55.4055 53.3957C55.2343 53.5382 55.0061 53.6807 54.7209 53.8233C54.5212 53.9088 54.2644 53.9658 53.9792 53.9658C53.5513 53.9658 53.2375 53.8518 52.9807 53.5952C52.724 53.3671 52.6099 53.025 52.6099 52.6259V50.6018C52.6099 50.2312 52.4958 50.0316 52.2675 50.0316C52.182 50.0316 52.0679 50.0601 51.8967 50.0886V49.9746C52.3531 49.8036 52.8096 49.604 53.323 49.3474V52.6259C53.323 52.968 53.4086 53.2246 53.5798 53.4242C53.7509 53.6237 54.0077 53.7378 54.3215 53.7378C54.8064 53.7378 55.2343 53.5382 55.5767 53.1106V50.5163C55.5767 50.2027 55.4626 50.0601 55.2343 50.0601C55.1488 50.0601 55.0346 50.0886 54.8635 50.1171V50.0031L55.5767 49.718C55.7763 49.6325 56.0046 49.5185 56.2898 49.3759V52.6829C56.2898 53.1961 56.4325 53.4527 56.6892 53.4527C56.7748 53.4527 56.8889 53.4242 57.003 53.3671L57.0315 53.4242L55.8334 53.9943Z" fill="black"/>
<path d="M62.1664 49.8609C61.9382 49.8609 61.7099 49.9464 61.4817 50.146C61.2535 50.3455 61.1394 50.5451 61.1394 50.8017V53.0824C61.1394 53.51 61.3676 53.7381 61.7955 53.7381V53.8521C61.7099 53.8521 61.5102 53.8521 61.225 53.8236H60.7686C60.7115 53.8236 60.5403 53.8236 60.198 53.8236L59.7701 53.8521V53.7381C60.198 53.7381 60.4262 53.4815 60.4262 52.9398V50.6306C60.4262 50.26 60.3121 50.0604 60.1124 50.0604C60.0269 50.0604 59.9127 50.0889 59.7416 50.1174L59.7131 50.0034C60.2265 49.8039 60.7115 49.6043 61.1394 49.3762V50.6306L61.3106 50.2885C61.6529 49.7183 62.0523 49.4332 62.4802 49.4332C62.6228 49.4332 62.7654 49.4617 62.8795 49.4903V50.374C62.7654 50.0319 62.5087 49.8609 62.1664 49.8609Z" fill="black"/>
<path d="M68.5849 51.2291C68.5849 50.773 68.4993 50.4023 68.3282 50.0888C68.1285 49.6896 67.8147 49.4901 67.3868 49.4901C67.0445 49.4901 66.7592 49.6896 66.5024 50.0602C66.2742 50.3738 66.1316 50.7445 66.1031 51.0866L66.0745 51.3431H68.5564V51.2291H68.5849ZM69.3551 51.5142H66.1031V51.6567V51.7708C66.1601 52.3409 66.3313 52.8256 66.6166 53.1962C66.9589 53.6238 67.3868 53.8519 67.9288 53.8519C68.2996 53.8519 68.699 53.7094 69.1554 53.4528L69.184 53.5383C68.7275 53.8234 68.2426 53.9659 67.7006 53.9659C66.9874 53.9659 66.4169 53.7379 65.9604 53.3102C65.504 52.8826 65.3043 52.3124 65.3043 51.5997C65.3043 51.0866 65.447 50.6304 65.7037 50.2598C65.989 49.8322 66.3598 49.5756 66.8448 49.4901C67.073 49.4331 67.3012 49.4045 67.5009 49.4045C68.1 49.4045 68.5564 49.6041 68.8702 49.9747C69.184 50.3453 69.3266 50.83 69.3266 51.4287V51.5142H69.3551Z" fill="black"/>
<path d="M77.3142 53.7949L77.2001 53.966H77.0289C76.8577 53.966 76.658 53.9374 76.4584 53.8519C75.8593 53.5953 75.574 53.1677 75.574 52.5405V49.6896H74.6612V49.5471H75.0891C75.3173 49.5471 75.5455 49.4046 75.7737 49.1195C75.9734 48.8629 76.116 48.6063 76.1446 48.3497L76.2016 48.0361H76.3157V49.5471H77.7706L77.7135 49.6896H76.3157V52.5975C76.3157 52.7401 76.3157 52.8256 76.3443 52.8826C76.3728 53.0822 76.4584 53.2532 76.6295 53.3958C76.7722 53.5383 76.9718 53.5953 77.1715 53.5953C77.3142 53.5953 77.4283 53.5668 77.5424 53.5098C77.5994 53.4813 77.685 53.3958 77.8847 53.2817C77.5994 53.4528 77.4283 53.6239 77.3142 53.7949Z" fill="black"/>
<path d="M82.2493 49.5186C81.7929 49.5186 81.422 49.7181 81.1653 50.0888C80.9085 50.4309 80.7944 50.83 80.7944 51.2861C80.7944 51.8848 80.9371 52.455 81.2223 52.9396C81.5647 53.5383 82.0211 53.8519 82.5631 53.8519C83.0481 53.8519 83.4189 53.6238 83.6757 53.1962C83.8754 52.8541 83.9609 52.398 83.9609 51.8563C83.9609 51.0295 83.7042 50.4023 83.2192 49.9462C82.934 49.6611 82.6202 49.5186 82.2493 49.5186ZM82.392 53.9659C81.7073 53.9659 81.1653 53.7379 80.7374 53.3102C80.3095 52.8826 80.0813 52.3409 80.0813 51.6567C80.0813 50.9725 80.3095 50.4024 80.7374 50.0032C81.1653 49.6041 81.7358 49.4045 82.449 49.4045C83.1051 49.4045 83.6471 49.6041 84.1036 50.0032C84.5315 50.4024 84.7597 50.944 84.7597 51.5997C84.7597 52.2839 84.5315 52.8541 84.1036 53.3102C83.6186 53.7379 83.0766 53.9659 82.392 53.9659Z" fill="black"/>
<path d="M92.8043 49.6326C92.4049 49.6326 92.0055 49.8322 91.6062 50.2313V53.5383C91.8629 53.7379 92.1767 53.8519 92.5475 53.8519C93.1181 53.8519 93.546 53.5953 93.8598 53.0822C94.1165 52.6545 94.2591 52.1414 94.2591 51.5427C94.2591 51.0295 94.145 50.6019 93.9168 50.2598C93.6886 49.8322 93.2892 49.6326 92.8043 49.6326ZM92.7187 53.9374C92.3764 53.9374 92.0055 53.8519 91.6062 53.6524V55.1063C91.6062 55.3914 91.6347 55.5624 91.7203 55.6765C91.8058 55.819 91.977 55.9045 92.2337 55.9045V55.9901L91.2068 55.9616C91.1497 55.9616 90.9786 55.9616 90.6362 55.9901L90.2083 56.0186V55.9331C90.4651 55.9331 90.6362 55.876 90.7218 55.7335C90.7789 55.6195 90.8359 55.4484 90.8359 55.1918V54.9923V50.6589C90.8359 50.2883 90.7218 50.0888 90.5221 50.0888C90.4651 50.0888 90.351 50.1173 90.1798 50.1458V50.0317C90.6362 49.8607 91.0927 49.6611 91.5776 49.4045V50.1743C91.977 49.6896 92.462 49.4616 93.0325 49.4616C93.6316 49.4616 94.1165 49.6611 94.4588 50.0602C94.8012 50.4594 94.9723 50.9725 94.9723 51.5997C94.9723 52.2839 94.7726 52.8541 94.3447 53.3102C93.9739 53.7094 93.4033 53.9374 92.7187 53.9374Z" fill="black"/>
<path d="M101.134 51.2291C101.134 50.773 101.049 50.4023 100.877 50.0888C100.678 49.6896 100.364 49.4901 99.936 49.4901C99.5936 49.4901 99.3084 49.6896 99.0516 50.0602C98.8234 50.3738 98.6808 50.7445 98.6523 51.0866L98.6237 51.3431H101.106V51.2291H101.134ZM101.904 51.5142H98.6523V51.6567V51.7708C98.7093 52.3409 98.8805 52.8256 99.1657 53.1962C99.5081 53.6238 99.936 53.8519 100.478 53.8519C100.849 53.8519 101.248 53.7094 101.705 53.4528L101.733 53.5383C101.277 53.8234 100.792 53.9659 100.25 53.9659C99.5366 53.9659 98.9661 53.7379 98.5096 53.3102C98.0532 52.8826 97.8535 52.3124 97.8535 51.5997C97.8535 51.0866 97.9961 50.6304 98.2529 50.2598C98.5382 49.8322 98.909 49.5756 99.394 49.4901C99.6222 49.4331 99.8504 49.4045 100.05 49.4045C100.649 49.4045 101.106 49.6041 101.419 49.9747C101.733 50.3453 101.876 50.83 101.876 51.4287V51.5142H101.904Z" fill="black"/>
<path d="M106.925 49.5186C106.469 49.5186 106.098 49.7181 105.841 50.0888C105.584 50.4309 105.47 50.83 105.47 51.2861C105.47 51.8848 105.613 52.455 105.898 52.9396C106.24 53.5383 106.697 53.8519 107.239 53.8519C107.724 53.8519 108.095 53.6238 108.351 53.1962C108.551 52.8541 108.637 52.398 108.637 51.8563C108.637 51.0295 108.38 50.4023 107.895 49.9462C107.581 49.6611 107.267 49.5186 106.925 49.5186ZM107.039 53.9659C106.355 53.9659 105.813 53.7379 105.385 53.3102C104.957 52.8826 104.729 52.3409 104.729 51.6567C104.729 50.9725 104.957 50.4024 105.385 50.0032C105.813 49.6041 106.383 49.4045 107.096 49.4045C107.752 49.4045 108.294 49.6041 108.751 50.0032C109.179 50.4024 109.407 50.944 109.407 51.5997C109.407 52.2839 109.179 52.8541 108.751 53.3102C108.294 53.7379 107.724 53.9659 107.039 53.9659Z" fill="black"/>
<path d="M114.741 49.6326C114.342 49.6326 113.943 49.8322 113.543 50.2313V53.5383C113.8 53.7379 114.114 53.8519 114.485 53.8519C115.055 53.8519 115.483 53.5953 115.797 53.0822C116.054 52.6545 116.196 52.1414 116.196 51.5427C116.196 51.0295 116.082 50.6019 115.854 50.2598C115.597 49.8322 115.226 49.6326 114.741 49.6326ZM114.656 53.9374C114.314 53.9374 113.943 53.8519 113.543 53.6524V55.1063C113.543 55.3914 113.572 55.5624 113.657 55.6765C113.743 55.819 113.914 55.9045 114.171 55.9045V55.9901L113.144 55.9616C113.087 55.9616 112.916 55.9616 112.573 55.9901L112.145 56.0186V55.9331C112.402 55.9331 112.573 55.876 112.659 55.7335C112.716 55.6195 112.773 55.4484 112.773 55.1918V54.9923V50.6589C112.773 50.2883 112.659 50.0888 112.459 50.0888C112.402 50.0888 112.288 50.1173 112.117 50.1458V50.0317C112.573 49.8607 113.03 49.6611 113.515 49.4045V50.1743C113.914 49.6896 114.399 49.4616 114.97 49.4616C115.569 49.4616 116.054 49.6611 116.396 50.0602C116.738 50.4594 116.909 50.9725 116.909 51.5997C116.909 52.2839 116.71 52.8541 116.282 53.3102C115.882 53.7094 115.34 53.9374 114.656 53.9374Z" fill="black"/>
<path d="M120.39 52.7691V47.5235C120.39 47.1529 120.276 46.9818 120.047 46.9818C119.99 46.9818 119.876 47.0103 119.734 47.0388L119.705 46.9248C120.162 46.7537 120.647 46.5542 121.16 46.2976V53.0257C121.16 53.4818 121.36 53.7099 121.788 53.7099V53.8239L120.647 53.7954C120.39 53.7954 120.076 53.7954 119.734 53.8239V53.7099C120.133 53.7099 120.361 53.5103 120.361 53.1112V52.7691H120.39Z" fill="black"/>
<path d="M127.807 51.2291C127.807 50.773 127.721 50.4023 127.55 50.0888C127.35 49.6896 127.036 49.4901 126.609 49.4901C126.266 49.4901 125.981 49.6896 125.724 50.0602C125.496 50.3738 125.353 50.7445 125.325 51.0866L125.296 51.3431H127.778V51.2291H127.807ZM128.605 51.5142H125.353V51.6567V51.7708C125.41 52.3409 125.582 52.8256 125.867 53.1962C126.209 53.6238 126.637 53.8519 127.179 53.8519C127.55 53.8519 127.949 53.7094 128.406 53.4528L128.434 53.5383C127.978 53.8234 127.493 53.9659 126.951 53.9659C126.238 53.9659 125.667 53.7379 125.211 53.3102C124.754 52.8826 124.555 52.3124 124.555 51.5997C124.555 51.0866 124.697 50.6304 124.954 50.2598C125.239 49.8322 125.61 49.5756 126.095 49.4901C126.323 49.4331 126.552 49.4045 126.751 49.4045C127.35 49.4045 127.807 49.6041 128.12 49.9747C128.434 50.3453 128.577 50.83 128.577 51.4287V51.5142H128.605Z" fill="black"/>
<path fill-rule="evenodd" clip-rule="evenodd" d="M69.4407 1.79508C64.2489 5.4442 62.5087 12.5144 55.7764 9.43542C62.9937 8.95078 63.3075 4.36086 68.0429 1.90911C64.1062 0.31262 57.8874 1.39595 56.1472 6.49902C57.6021 5.24464 59.9413 2.76437 65.9605 2.5363C60.2836 3.79069 56.8889 6.7556 54.8635 9.20735C53.6368 1.02534 61.4532 -2.39571 69.4407 1.79508Z" fill="#75B051"/>
<path d="M9.22049 5.15887C8.50732 5.15887 7.62298 5.2444 6.59601 5.44396V17.1896C7.73709 17.5887 8.87817 17.7883 9.96219 17.7883C13.6422 17.7883 15.4964 15.9067 15.4964 12.1435C15.4964 10.0339 14.9829 8.38036 13.956 7.15449C12.8719 5.81458 11.303 5.15887 9.22049 5.15887ZM21.6297 31.558C18.5203 31.558 15.8102 29.3343 13.471 24.8584L11.2744 20.6391C10.9036 19.9264 10.5898 19.4418 10.276 19.2137C9.93366 18.8431 9.42018 18.5865 8.76406 18.4725L6.59601 18.1019V26.7115C6.59601 28.251 6.73865 29.2488 7.02392 29.7049C7.42329 30.3606 8.30763 30.7027 9.64839 30.7027V31.0448L4.94146 30.9308C4.65619 30.9308 3.74333 30.9593 2.2314 30.9878L0.205994 31.0448V30.6457C1.54676 30.6457 2.43109 30.3036 2.85899 29.6194C3.17279 29.1062 3.34395 28.1084 3.34395 26.683V8.77949C3.34395 7.63914 3.22984 6.81238 3.00163 6.32773C2.65931 5.558 1.94613 5.15887 0.890639 5.15887H0.205994V4.67423H4.71324C5.28378 4.67423 6.11106 4.64572 7.25213 4.5887C8.36468 4.53168 9.22049 4.50317 9.79103 4.50317C15.8102 4.50317 18.8055 6.75537 18.8055 11.2312C18.8055 12.9133 18.3491 14.3387 17.4362 15.479C16.5234 16.6194 15.2682 17.3891 13.6136 17.7597L12.8149 17.9308C13.7277 18.9856 14.6406 20.297 15.5249 21.865L17.9782 26.2268C19.7469 29.3913 21.5441 30.9593 23.3698 30.9593C23.541 30.9593 23.6836 30.9593 23.7692 30.9593V31.3014C23.1131 31.4725 22.3999 31.558 21.6297 31.558Z" fill="black"/>
<path d="M27.1353 30.9592C26.9356 30.9592 26.1939 30.9592 24.9102 30.9592L23.1986 31.0448V30.5601C24.083 30.5601 24.7105 30.3891 25.1099 30.0184C25.3952 29.7619 25.5949 29.1062 25.6519 28.0799L25.6805 27.5382V18.5864C25.6805 17.1325 25.2526 16.3913 24.4253 16.3913C24.1971 16.3913 23.7406 16.4483 22.9989 16.5623L23.0275 16.1062C25.224 15.2509 27.0498 14.4242 28.5332 13.6544V26.3978C28.5332 27.7663 28.5902 28.6785 28.7043 29.0777C28.9611 30.0184 29.5886 30.5031 30.5871 30.5886L31.1291 30.6171L31.1006 31.0163L27.1353 30.9592ZM27.1353 10.2619C26.5363 10.2619 26.0228 10.0338 25.6234 9.60617C25.2526 9.15003 25.0529 8.63688 25.0529 8.00968C25.0529 7.43951 25.2526 6.95486 25.6805 6.49872C26.1084 6.07109 26.5933 5.84302 27.1353 5.84302C27.7344 5.84302 28.2194 6.07109 28.6187 6.49872C29.0181 6.92635 29.2178 7.43951 29.2178 8.00968C29.2178 8.60837 29.0181 9.15003 28.6187 9.57767C28.2479 10.0338 27.7344 10.2619 27.1353 10.2619Z" fill="black"/>
<path d="M33.126 31.0737L44.6224 14.6811H39.459C37.9471 14.6811 36.8916 14.8522 36.2925 15.1658C35.4367 15.6219 34.8947 16.5627 34.638 17.9596C34.5809 18.2447 34.5809 18.4728 34.6094 18.6438H34.3242V14.168H48.1882L36.6919 30.5605H41.9694C46.0487 30.5605 48.0741 29.2491 48.0741 26.5978H48.3309V31.0737H33.126Z" fill="black"/>
<path d="M102.703 30.9311C102.133 30.9026 101.362 30.9311 100.364 30.9596C99.2513 31.0451 98.5096 31.0736 98.0532 31.0736V30.6745C99.3369 30.6745 100.193 30.3609 100.621 29.7337C100.934 29.2491 101.106 28.2798 101.106 26.8828V18.2447H85.7011V27.6241C85.7011 28.7644 85.9293 29.5626 86.3857 30.0188C86.8421 30.5034 87.6409 30.7315 88.7535 30.7315V31.1021L83.7898 30.9596L79.3966 31.1021V30.7315C80.7659 30.7315 81.6503 30.3894 82.0782 29.7337C82.392 29.2205 82.5631 28.2227 82.5631 26.7118V9.09336C82.5631 7.61091 82.392 6.6131 82.0782 6.12845C81.6503 5.47275 80.7659 5.13064 79.3966 5.13064V4.6745L84.0465 4.81705C84.3318 4.81705 85.2446 4.78854 86.7566 4.73152L88.7535 4.646V5.13064C87.4412 5.13064 86.5854 5.44424 86.186 6.07143C85.8722 6.55608 85.7011 7.52538 85.7011 8.97933V17.5605H101.106V9.09336C101.106 7.5824 100.963 6.58459 100.678 6.12845C100.278 5.44424 99.394 5.13064 98.0532 5.13064V4.6745C98.5382 4.6745 99.4225 4.70301 100.763 4.76003L102.732 4.84556C102.96 4.84556 103.844 4.81705 105.442 4.76003L107.439 4.6745V5.13064C106.269 5.13064 105.47 5.35871 104.985 5.81485C104.5 6.27099 104.272 7.06924 104.272 8.20959V26.6833C104.272 28.2227 104.415 29.2205 104.7 29.6767C105.128 30.3324 106.012 30.6745 107.381 30.6745L107.41 31.0736C106.982 31.0736 106.098 31.0451 104.757 30.9881L102.703 30.9311Z" fill="black"/>
<path d="M122.929 20.9528C122.929 19.2138 122.586 17.7313 121.93 16.4769C121.103 14.9375 119.876 14.1677 118.307 14.1677C116.995 14.1677 115.825 14.909 114.827 16.3629C113.914 17.6458 113.429 18.9857 113.315 20.3826L113.229 21.409H122.929V20.9528ZM125.981 22.0647H113.258V22.5778L113.287 22.9769C113.486 25.2576 114.142 27.1107 115.255 28.5932C116.539 30.3037 118.279 31.159 120.418 31.159C121.816 31.159 123.414 30.6458 125.182 29.591L125.325 29.9331C123.585 31.0449 121.645 31.6151 119.477 31.6151C116.71 31.6151 114.456 30.7598 112.716 29.0778C110.976 27.3673 110.12 25.1436 110.12 22.3783C110.12 20.3826 110.634 18.6151 111.66 17.1326C112.773 15.5076 114.256 14.5098 116.139 14.0822C117.024 13.8826 117.879 13.7971 118.735 13.7971C121.046 13.7971 122.843 14.5669 124.127 16.0778C125.325 17.5033 125.924 19.3848 125.924 21.7511V22.0647H125.981Z" fill="black"/>
<path d="M138.219 15.565C137.306 15.565 136.393 15.9356 135.538 16.6768C134.682 17.4181 134.254 18.2448 134.254 19.1856V28.0233C134.254 29.7339 135.11 30.5891 136.793 30.5891V31.0738C136.479 31.0738 135.737 31.0453 134.568 30.9882H132.799C132.628 30.9882 131.886 30.9882 130.574 30.9882L128.862 31.0738V30.5891C130.545 30.5891 131.401 29.5628 131.401 27.5102V18.5014C131.401 17.0475 131.002 16.3062 130.174 16.3062C129.804 16.3062 129.347 16.3918 128.748 16.5343L128.663 16.0497C130.716 15.3084 132.571 14.5102 134.282 13.5979V18.4444L134.91 17.076C136.251 14.8523 137.791 13.7404 139.503 13.7404C140.073 13.7404 140.587 13.826 141.072 13.997V17.4466C140.501 16.1922 139.56 15.565 138.219 15.565Z" fill="black"/>
<path d="M152.026 14.7664C150.257 14.7664 148.717 15.5361 147.405 17.0471V30.1041C148.517 30.8168 149.715 31.1589 150.999 31.1589C153.196 31.1589 154.907 30.2751 156.134 28.4791C157.246 26.9111 157.788 24.9725 157.788 22.6633C157.788 20.4966 157.361 18.7291 156.533 17.3322C155.535 15.6216 154.023 14.7664 152.026 14.7664ZM151.598 31.4155C150.771 31.4155 149.887 31.33 148.945 31.1589L144.581 30.3607V6.81243C144.581 5.15892 144.124 4.33217 143.183 4.33217C142.954 4.33217 142.555 4.38918 141.928 4.50322L141.813 4.07559C143.753 3.41989 145.607 2.62164 147.376 1.65234V16.5624C148.46 15.6216 149.316 14.9659 149.972 14.6238C150.913 14.1392 151.94 13.8826 153.082 13.8826C155.421 13.8826 157.304 14.6238 158.673 16.0778C160.042 17.5317 160.755 19.4703 160.755 21.8365C160.755 24.7159 159.928 27.0251 158.302 28.7927C156.704 30.5317 154.451 31.4155 151.598 31.4155Z" fill="black"/>
<path d="M60.8256 21.4659C59.9983 21.6655 59.1995 21.9221 58.4008 22.2357C56.7177 22.9199 55.6052 23.4616 55.0917 23.8607C53.9791 24.6589 53.4371 25.7423 53.4371 27.0537C53.4371 29.3629 54.4641 30.5032 56.4895 30.5032C57.8588 30.5032 59.3137 29.7335 60.8256 28.1655V21.4659ZM61.6243 31.7291C61.3105 31.273 61.0538 30.6173 60.8541 29.762C60.7971 29.5624 60.74 29.2203 60.6259 28.7357C58.7431 30.6173 56.7748 31.558 54.7208 31.558C52.7525 31.558 51.4117 30.7028 50.7271 28.9352C50.4703 28.3365 50.3562 27.7379 50.3562 27.1677C50.3562 25.9703 51.0694 24.944 52.5243 24.0317C53.2945 23.5756 54.6067 23.0339 56.4039 22.4637L60.7971 21.0668V18.1874C60.7971 17.0756 60.5688 16.1348 60.1124 15.4221C59.5704 14.5953 58.7716 14.1677 57.6876 14.1677C56.9174 14.1677 56.1757 14.3958 55.4911 14.8234C54.7208 15.308 54.3214 15.9352 54.3214 16.705C54.3214 17.1611 54.4356 17.7598 54.6638 18.4725L52.0108 19.3278C51.9252 19.1282 51.8681 18.8146 51.8396 18.4155C51.8396 17.0756 52.781 15.9067 54.6352 14.9374C56.2613 14.0822 57.8303 13.6545 59.3707 13.6545C60.6544 13.6545 61.6529 14.0252 62.4231 14.7949C63.1933 15.5646 63.5927 16.5624 63.5927 17.8453V27.4243C63.5927 28.7927 64.1062 29.4769 65.1046 29.4769C65.3899 29.4769 65.8178 29.3629 66.3598 29.1063L66.4739 29.3914L61.6243 31.7291Z" fill="black"/>
<path d="M136.793 39.8545H24.1971V40.6527H136.793V39.8545Z" fill="#75B051"/>
</svg>
